<?xml version="1.0" encoding="iso-8859-1"?>
<!-- Uploaded to: SVG Repo, www.svgrepo.com, Generator: SVG Repo Mixer Tools -->
<svg fill="#000000" height="800px" width="800px" version="1.1" id="Layer_1" xmlns="http://www.w3.org/2000/svg" xmlns:xlink="http://www.w3.org/1999/xlink" 
	 viewBox="0 0 512 512" xml:space="preserve">
<g>
	<g>
		<path d="M0,0v512h234.667V200.832l-70.251,70.251c-8.341,8.341-21.824,8.341-30.165,0s-8.341-21.824,0-30.165l106.667-106.667
			c1.963-1.963,4.309-3.52,6.933-4.608c2.603-1.067,5.376-1.643,8.149-1.643s5.547,0.576,8.149,1.643
			c2.624,1.088,4.971,2.645,6.933,4.608l106.667,106.667c8.341,8.341,8.341,21.824,0,30.165s-21.824,8.341-30.165,0l-70.251-70.251
			V512H512V0H0z M469.334,149.333C457.558,149.333,448,139.776,448,128V64H64v64c0,11.776-9.557,21.333-21.333,21.333
			S21.333,139.776,21.333,128V42.667c0-11.776,9.557-21.333,21.333-21.333h426.667c11.776,0,21.333,9.557,21.333,21.333V128h0.001
			C490.667,139.776,481.11,149.333,469.334,149.333z"/>
	</g>
</g>
</svg>